<svg xmlns="http://www.w3.org/2000/svg" width="356" height="356" preserveAspectRatio="xMidYMid meet" version="1.0" viewBox="0 0 267 267"><metadata>Created by potrace 1.11, written by Peter Selinger 2001-2013</metadata><g fill="#000" stroke="none"><path d="M0 1335 l0 -1335 1335 0 1335 0 0 1335 0 1335 -1335 0 -1335 0 0 -1335z m2570 0 l0 -1235 -1235 0 -1235 0 0 1235 0 1235 1235 0 1235 0 0 -1235z" transform="translate(0.000000,267.000000) scale(0.100000,-0.100000)"/><path d="M860 1355 l0 -835 180 0 180 0 0 355 0 355 280 0 280 0 0 150 0 150 -280 0 -280 0 0 180 0 180 305 0 305 0 0 150 0 150 -485 0 -485 0 0 -835z" transform="translate(0.000000,267.000000) scale(0.100000,-0.100000)"/><path d="M1320 665 l0 -145 255 0 255 0 0 145 0 145 -255 0 -255 0 0 -145z" transform="translate(0.000000,267.000000) scale(0.100000,-0.100000)"/></g></svg>